<svg xmlns="http://www.w3.org/2000/svg" width="42.063" height="47.688" viewBox="0 0 42.063 47.688">
  <defs>
    <style>
      .cls-1 {
        fill: #31afec;
        fill-rule: evenodd;
      }
    </style>
  </defs>
  <path class="cls-1" d="M924.874,733.629a3.533,3.533,0,0,1-2.548-1.02l-13.435-13.435,1.414-1.414,13.435,13.434a1.686,1.686,0,0,0,1.477.41,3.742,3.742,0,0,0,2.058-1.117,3.664,3.664,0,0,0,1.149-2.077,1.7,1.7,0,0,0-.442-1.458l-5.656-5.657,1.414-1.414,5.657,5.657a3.664,3.664,0,0,1,1.012,3.122,5.555,5.555,0,0,1-1.65,3.171,5.846,5.846,0,0,1-3.259,1.753A4.479,4.479,0,0,1,924.874,733.629Zm-4.668-22.94-1.415-1.414,0.708-.707-2.122-2.121-1.414,1.414-1.414-1.414,1.414-1.414a2,2,0,0,1,2.828,0l2.122,2.121a2,2,0,0,1,0,2.828Zm-6.364-.707-1.414-1.414,2.121-2.121-2.121-2.121-2.122,2.121-1.414-1.414,2.121-2.121a2.005,2.005,0,0,1,2.829,0l2.121,2.121a2,2,0,0,1,0,2.828Zm3.53,9.783a2,2,0,0,1-1.4-.573l-1.842-1.812,1.4-1.426,1.843,1.813,4.955-4.956-2.121-2.122-2.829,2.83-1.414-1.414,2.828-2.83a2,2,0,0,1,2.829,0l2.121,2.122a2,2,0,0,1,0,2.829l-4.955,4.955A2,2,0,0,1,917.372,719.765ZM909.6,731.2l-1.415-1.414,1.414-1.415a4.013,4.013,0,0,1,3.1-.818c1.2,0.025,1.97-.008,2.557-0.6l2.122-2.122,1.413,1.416-2.121,2.12a5.041,5.041,0,0,1-4,1.182,2.764,2.764,0,0,0-1.652.232Zm-1.415-8.485-1.414-1.414c2.787-2.788,2.669-7.232.707-9.193h0a1,1,0,0,1,1.415-1.415h0l2.828,2.83a3,3,0,0,0,2.867.9,3.179,3.179,0,0,0,1.506-.774l-7.2-7.2c-0.652-.651-1.182-0.774-2.474-0.583l-0.766.111a12.731,12.731,0,0,0-3.5.789c-0.394.348-1.165,2.788-1.165,5.195,0,1.571-.125,5.352-1.282,6.509l-1.415,1.414-1.414-1.414,1.415-1.414c0.212-.259.7-1.916,0.7-5.1,0-2.244.689-5.858,1.98-6.807,0.84-.619,2.427-0.881,4.413-1.158l0.744-.106a4.348,4.348,0,0,1,4.188,1.145l7.778,7.778a1,1,0,0,1,.226,1.064,4.549,4.549,0,0,1-3.305,2.5,4.931,4.931,0,0,1-4.11-.929A9.58,9.58,0,0,1,908.185,722.711ZM920.206,724a1.994,1.994,0,0,1-1.415-.585L916.67,721.3a2,2,0,0,1,0-2.828l0.708-.707,1.414,1.414-0.707.707L920.206,722l4.949-4.95-2.828-2.828,1.414-1.415,2.828,2.829a2,2,0,0,1,0,2.828l-4.949,4.95A1.993,1.993,0,0,1,920.206,724Zm-15.555,14.552a1,1,0,0,1-.707-0.293L889.8,724.126a1,1,0,0,1,0-1.414l5.652-5.654a1,1,0,0,1,1.414,0l14.142,14.136a1,1,0,0,1,0,1.413l-5.652,5.655A1,1,0,0,1,904.651,738.555Zm-12.728-15.136,12.728,12.722,4.238-4.241-12.728-12.721Zm33.232,6.362-2.121-2.121,1.414-1.414,2.121,2.121Zm-28.991-4.949-1.414-1.414L896.164,722l1.414,1.414Zm3.536-14.85-2.143-2.142a8.484,8.484,0,0,1-8.351-12.122,1,1,0,0,1,1.61-.277l4.641,4.642,2.122-2.121-4.643-4.642a1,1,0,0,1,.277-1.609,8.493,8.493,0,0,1,11.938,9.58l3.034,3.035-1.414,1.414-3.443-3.443a1,1,0,0,1-.249-1,6.491,6.491,0,0,0-7.6-8.261l4.221,4.221a1,1,0,0,1,0,1.414l-3.536,3.535a1,1,0,0,1-1.414,0l-4.221-4.221a6.51,6.51,0,0,0,1.746,5.99,6.442,6.442,0,0,0,5.51,1.83,0.992,0.992,0,0,1,.846.283l2.483,2.482Z" transform="translate(-888.375 -690.875)"/>
</svg>
