<svg xmlns="http://www.w3.org/2000/svg" width="48" height="44" viewBox="0 0 48 44">
  <defs>
    <style>
      .cls-1 {
        fill: #31afec;
        fill-rule: evenodd;
      }
    </style>
  </defs>
  <path class="cls-1" d="M120.5,859.5h-4a4,4,0,0,1-4-4v-27a7.2,7.2,0,0,1,3.44-5.828l0.254-.172h4.613l0.253,0.172a7.2,7.2,0,0,1,3.44,5.828v27A4,4,0,0,1,120.5,859.5Zm-3.683-35a5.123,5.123,0,0,0-2.317,4v27a2,2,0,0,0,2,2h4a2,2,0,0,0,2-2v-27a5.123,5.123,0,0,0-2.317-4h-3.366Zm12.683,30h-4v-2h2v-34a1,1,0,0,0-1-1h-6a1,1,0,0,0-1,1v2h-2v-2a3,3,0,0,1,3-3h6a3,3,0,0,1,3,3v36Zm-1-24h-3v-2h3v2Zm-8-9h-4v-2h4v2Zm8,15h-3v-2h3v2Zm0,6h-3v-2h3v2Zm0,6h-3v-2h3v2Zm-17,11h-5a4,4,0,0,1-4-4v-27a7.2,7.2,0,0,1,3.44-5.828l0.254-.172h4.612l0.254,0.171a9.38,9.38,0,0,1,1.366,1.121l-1.411,1.416a7.269,7.269,0,0,0-.831-0.708h-3.367a5.123,5.123,0,0,0-2.317,4v27a2,2,0,0,0,2,2h5v2Zm-2-39h-2v-2a3,3,0,0,1,3-3h6v2h-6a1,1,0,0,0-1,1v2Zm1,1h-4v-2h4v2Zm-9,38h-5a4,4,0,0,1-4-4v-27a7.2,7.2,0,0,1,3.44-5.828l0.254-.172h4.612l0.254,0.171a9.38,9.38,0,0,1,1.366,1.121l-1.411,1.416a7.269,7.269,0,0,0-.831-0.708H96.817a5.123,5.123,0,0,0-2.317,4v27a2,2,0,0,0,2,2h5v2Zm-2-39h-2v-2a3,3,0,0,1,3-3h6v2h-6a1,1,0,0,0-1,1v2Zm1,1h-4v-2h4v2Zm38,38h-13v-2h11V841.086l2-2V837.5h-8v-2h10v4.414l-2,2V859.5Zm-1-17h-7v-2h7v2Z" transform="translate(-92.5 -815.5)"/>
</svg>
