<svg xmlns="http://www.w3.org/2000/svg" width="45.063" height="46.907" viewBox="0 0 45.063 46.907">
  <defs>
    <style>
      .cls-1 {
        fill: #31afec;
        fill-rule: evenodd;
      }
    </style>
  </defs>
  <path class="cls-1" d="M108.08,600.544l-1.414-1.414,2.426-2.426a2.563,2.563,0,0,0,.883-2.029c-0.014-.444-0.059-0.859-0.1-1.25-0.149-1.4-.3-2.858,1.033-4.194l1.414,1.414c-0.634.633-.6,1.246-0.458,2.57,0.046,0.437.094,0.9,0.11,1.4a4.537,4.537,0,0,1-1.468,3.507Zm8.485,8.485-1.414-1.414,2.9-2.9a4.61,4.61,0,0,1,2.725-.851c1.206-.15,2.706-0.337,3.436-1.066l6.673-6.675c0.085-.494-1.145-3.173-6.792-9.176a1.663,1.663,0,0,0-1.189-.493,1.57,1.57,0,0,0-1.2.463l-5.848,5.849-1.414-1.414,5.847-5.849a3.615,3.615,0,0,1,2.582-1.05h0.06a3.672,3.672,0,0,1,2.616,1.122c9.07,9.643,7.444,11.268,6.749,11.961l-6.673,6.675c-1.215,1.215-3.093,1.449-4.6,1.638a6.646,6.646,0,0,0-1.586.3Zm-0.3,4.662-1.447-1.381,1.764-1.849-10.61-10.611-3.711,3.844-1.439-1.388,5.125-5.31,13.431,13.432Zm-9.43-7.984-2-2,1.414-1.414,2,2Zm9.015-14.021c-8.072,0-15.477-4.506-19.79-8.819l-0.536-.535,0.371-.661a51.363,51.363,0,0,1,14.525-14.525l0.661-.372,0.535,0.537c4.441,4.441,9.087,12.162,8.807,20.51l-2-.066c0.248-7.373-3.708-14.258-7.678-18.47A52.119,52.119,0,0,0,98.034,582c4.212,3.971,11.114,7.9,18.468,7.678l0.068,2C116.329,591.682,116.088,591.686,115.849,591.686Zm16.98,8.151-2.121-2.121,1.414-1.414,2.121,2.121Zm-6.365,6.364-2.121-2.121,1.414-1.414,2.121,2.121Zm2.122,6.364-3.208-3.208L126.251,605l2.335-2.335L130,604.08l-1.908,1.907L127.55,608.7l1.036,1.036,9.193-9.192-1.037-1.036-2.713.542-1.907,1.907-1.414-1.414,2.335-2.335,4.357-.872,3.207,3.208Zm-24.841-20.379a10.9,10.9,0,0,1-5.371-1.39c-3.919-2.344-1.968-5.988-1.029-7.739L99.108,584c-1.543,2.882-1.477,4.02.293,5.079a8.642,8.642,0,0,0,6.046.9,2.677,2.677,0,0,0,1.751-1.222l1.764,0.943a4.639,4.639,0,0,1-2.981,2.205A8.439,8.439,0,0,1,103.745,592.186Zm14.707-11.973-0.945-1.764a2.665,2.665,0,0,0,1.222-1.751,8.635,8.635,0,0,0-.9-6.046c-1.058-1.77-2.2-1.836-5.079-.293l-0.944-1.763c1.752-.939,5.4-2.891,7.739,1.03a10.681,10.681,0,0,1,1.112,7.605A4.638,4.638,0,0,1,118.452,580.213Z" transform="translate(-95.531 -566.781)"/>
</svg>
