<svg xmlns="http://www.w3.org/2000/svg" width="48" height="48" viewBox="0 0 48 48">
  <defs>
    <style>
      .cls-1 {
        fill: #31afec;
        fill-rule: evenodd;
      }
    </style>
  </defs>
  <path class="cls-1" d="M527,739.293h-2V721.879l2-2v-1.586H511v-2h18v4.414l-2,2v16.586Zm-10-22h-2v-12a5.121,5.121,0,0,0-2.317-4h-3.366a5.121,5.121,0,0,0-2.317,4v6h-2v-6a7.2,7.2,0,0,1,3.44-5.829l0.254-.171h4.612l0.254,0.171a7.2,7.2,0,0,1,3.44,5.829v12Zm5-2h-2v-20a1,1,0,0,0-1-1h-6a1,1,0,0,0-1,1v2h-2v-2a3,3,0,0,1,3-3h6a3,3,0,0,1,3,3v20Zm-33-2h-2v-12a3,3,0,0,1,3-3h6a3,3,0,0,1,3,3v2h-2v-2a1,1,0,0,0-1-1h-6a1,1,0,0,0-1,1v12Zm32-8h-3v-2h3v2Zm-8-7h-4v-2h4v2Zm-22,29H481v-6h18v2H483v2h8v2Zm24,0h-8v-2h6v-2h-4v-2h6v6Zm-12-22H493v-2h10v2Zm-5,35a16.04,16.04,0,0,1-15.858-13.863l1.982-.265a14,14,0,0,0,27.753-.006l1.982,0.264A16.039,16.039,0,0,1,498,740.293Zm13.877-17.867a13.83,13.83,0,0,0-9.21-11.19L502,711v-2.708h-2v-3h-4v3h-2V711l-0.667.236a13.834,13.834,0,0,0-9.208,11.187l-1.983-.267A15.8,15.8,0,0,1,492,709.6v-3.309h2v-3h8v3h2V709.6a15.794,15.794,0,0,1,9.859,12.559ZM521,710.293h-3v-2h3v2Zm5,6h-2v-7h2v7Zm0,7h-9v-2h9v2Zm3,17H481v-2h48v2Zm-28-32h-2v-2h2v2Zm-4,0h-2v-2h2v2Zm21,27h-2v-3h2v3Zm4,0h-2v-3h2v3Z" transform="translate(-481 -692.281)"/>
</svg>
