<svg xmlns="http://www.w3.org/2000/svg" width="48" height="48.406" viewBox="0 0 48 48.406">
  <defs>
    <style>
      .cls-1 {
        fill: #31afec;
        fill-rule: evenodd;
      }
    </style>
  </defs>
  <path class="cls-1" d="M925.5,604h-7v-2h7v2Zm-8,7h-10v-2h8V581a4,4,0,0,1,8,0v19a2,2,0,0,0,4,0V574a4,4,0,0,1,8,0v3h-5v-2h3v-1a2,2,0,0,0-4,0v26a4,4,0,0,1-8,0V581a2,2,0,0,0-4,0v30Zm-20,0h-10V581a4,4,0,0,1,4-4h28v2h-28a2,2,0,0,0-2,2v28h8v2Zm4-35h-2v-2a4,4,0,0,1,4-4h28v2h-28a2,2,0,0,0-2,2v2Zm3.009,32a3.184,3.184,0,0,1-1.472-.364,1.189,1.189,0,0,0-1.089,0,3.175,3.175,0,0,1-4.42-1.622,1.188,1.188,0,0,0-.838-0.715,3.2,3.2,0,0,1-2.06-1.52,3.239,3.239,0,0,1-.286-2.578,1.228,1.228,0,0,0-.191-1.109,3.229,3.229,0,0,1,.819-4.655,1.215,1.215,0,0,0,.552-0.969,3.183,3.183,0,0,1,3.6-3.044,1.185,1.185,0,0,0,1.025-.379A3.188,3.188,0,0,1,902.507,590h0a3.183,3.183,0,0,1,2.352,1.045,1.173,1.173,0,0,0,1.023.379,3.19,3.19,0,0,1,3.6,3.044,1.223,1.223,0,0,0,.551.97,3.228,3.228,0,0,1,.812,4.656,1.228,1.228,0,0,0-.193,1.108,3.22,3.22,0,0,1-2.351,4.1,1.2,1.2,0,0,0-.842.715A3.182,3.182,0,0,1,904.509,608Zm-2.016-2.5a3.194,3.194,0,0,1,1.474.363,1.2,1.2,0,0,0,1.641-.61,3.2,3.2,0,0,1,2.253-1.907,1.18,1.18,0,0,0,.769-0.57,1.211,1.211,0,0,0,.11-0.982,3.238,3.238,0,0,1,.51-2.909,1.225,1.225,0,0,0,.231-0.959,1.2,1.2,0,0,0-.533-0.808,3.219,3.219,0,0,1-1.464-2.565,1.193,1.193,0,0,0-1.338-1.148,3.176,3.176,0,0,1-2.769-1.017,1.2,1.2,0,0,0-1.743,0,3.175,3.175,0,0,1-2.77,1.017,1.2,1.2,0,0,0-1.342,1.15,3.216,3.216,0,0,1-1.466,2.562,1.2,1.2,0,0,0-.536.813,1.215,1.215,0,0,0,.227.955,3.228,3.228,0,0,1,.506,2.911,1.223,1.223,0,0,0,.108.982,1.181,1.181,0,0,0,.768.568,3.193,3.193,0,0,1,2.251,1.909,1.2,1.2,0,0,0,1.639.608A3.191,3.191,0,0,1,902.493,605.5Zm0-2.5a4,4,0,1,1,4-4A4,4,0,0,1,902.492,603Zm0-6a2,2,0,1,0,2,2A2,2,0,0,0,902.492,597Zm4.008,21.414-4-4-4,4V607h2v6.586l2-2,2,2V607h2v11.414Z" transform="translate(-887.5 -570)"/>
</svg>
