<svg xmlns="http://www.w3.org/2000/svg" width="48" height="32" viewBox="0 0 48 32">
  <defs>
    <style>
      .cls-1 {
        fill: #31afec;
        fill-rule: evenodd;
      }
    </style>
  </defs>
  <path class="cls-1" d="M124,718h-8v-2h6V694H97v10H95V692h29v26Zm-9,6H92V705h23v19Zm-21-2h19V707H94v15Zm14-11H99v-6h9v6Zm-7-2h5v-2h-5v2Zm-3,11H96v-2h2v2Zm4,0h-2v-2h2v2Zm35-2h-2v-2h2a1,1,0,0,0,1-1v-6.787A0.991,0.991,0,0,0,137,707h-1.588l-3.69-6.642a1,1,0,0,0-.779-0.359H123v-2h7.943a3,3,0,0,1,2.478,1.31L136.588,705H137a2.945,2.945,0,0,1,3,3.212V715A3,3,0,0,1,137,718Zm-6.009,5A4.992,4.992,0,1,1,136,718.013,5.006,5.006,0,0,1,130.991,723Zm0-7.983A2.992,2.992,0,1,0,134,718.013,3,3,0,0,0,130.991,715.021ZM127,718h-4v-2h4v2Zm6-10h-8v-2h5.8l-1.63-2.445,1.664-1.109L133,705.7V708Z" transform="translate(-92 -692)"/>
</svg>
