<svg xmlns="http://www.w3.org/2000/svg" width="47" height="48" viewBox="0 0 47 48">
  <defs>
    <style>
      .cls-1 {
        fill: #31afec;
        fill-rule: evenodd;
      }
    </style>
  </defs>
  <path class="cls-1" d="M890.832,974.5h-2v-27a2,2,0,0,1,2-2h14v2h-14v27Zm29,8h-29a5.006,5.006,0,0,1-5-5v-2h31v1.828a3.12,3.12,0,0,0,2.7,3.159c0.086,0.007.171,0.012,0.257,0.013h0.043a2.968,2.968,0,0,0,2.015-.779,3.006,3.006,0,0,0,.983-2.221v-30h-4v-2h4a2,2,0,0,1,2,2v30a5,5,0,0,1-5,5h0Zm-32-5a3,3,0,0,0,3,3h25.06a5.281,5.281,0,0,1-1.057-3h-27Zm27-18a5.006,5.006,0,0,1-5-5v-12a3,3,0,0,1,6,0v11h-2v-11a1,1,0,0,0-2,0v12a3,3,0,0,0,6,0v-14a4,4,0,0,0-4-4h-2a4,4,0,0,0-4,4v13h-2v-13a6.007,6.007,0,0,1,6-6h2a6.007,6.007,0,0,1,6,6v14A5.006,5.006,0,0,1,914.832,959.5Zm-10-16h-13v-2h13v2Zm0-4h-10v-2h10v2Zm24,38h-2v-34h-8v-2h8a2,2,0,0,1,2,2v34Zm4-4h-2v-34h-12v-2h12a2,2,0,0,1,2,2v34Z" transform="translate(-885.844 -934.5)"/>
</svg>
