<svg xmlns="http://www.w3.org/2000/svg" width="47.687" height="48" viewBox="0 0 47.687 48">
  <defs>
    <style>
      .cls-1 {
        fill: #31afec;
        fill-rule: evenodd;
      }
    </style>
  </defs>
  <path class="cls-1" d="M519,962v-2a3.121,3.121,0,0,0,3-3v-4c0-3.48-3.133-4-5-4h-5c-2.486,0-3.186.928-4.875,3.169l-0.328.435L505.2,951.4l0.325-.43c1.8-2.388,2.988-3.966,6.472-3.966h5c3.384,0,7,1.576,7,6v4A5.13,5.13,0,0,1,519,962Zm-7-2h-2v-3.882l-1.553.777-0.894-1.789,2-1A0.99,0.99,0,0,1,510,954h1a1,1,0,0,1,1,1v5Zm8,4h-2V954h2v10Zm6,20H480.315a1,1,0,0,1-1-1.022,24.169,24.169,0,0,1,3.866-12.325l1.675,1.094A22.263,22.263,0,0,0,481.366,982h43.589a21.881,21.881,0,0,0-25.826-19.8l-0.366-1.966A23.87,23.87,0,0,1,527,982.979,1,1,0,0,1,526,984Zm-35-1h-2v-1.889A2.848,2.848,0,0,1,491.963,978h6.53A1.708,1.708,0,0,0,500,976.447v-0.933A3.312,3.312,0,0,1,503.143,972h0.005c0.339,0,.852,0,0.852-1.15v-0.933c0-.809-0.169-0.917-0.842-0.917H499v-2h4.158A2.622,2.622,0,0,1,506,969.917v0.933c0,1.94-1.09,3.147-2.845,3.15h0A1.383,1.383,0,0,0,502,975.514v0.933A3.669,3.669,0,0,1,498.493,980h-6.53c-0.5,0-.963.135-0.963,1.111V983Zm16,0h-2v-1.422c0-2.739,2.665-4.578,5.154-4.578h4.665a1.3,1.3,0,0,0,1.181-.971v-0.106a1.264,1.264,0,0,0-1.181-.923h-1.866A2.827,2.827,0,0,1,510,972.248v-0.932c0-1.533,1.29-3.316,2.953-3.316H520v2h-7.047a1.462,1.462,0,0,0-.953,1.316v0.932a0.867,0.867,0,0,0,.953.752h1.866A3.189,3.189,0,0,1,518,975.923v0.106A3.253,3.253,0,0,1,514.819,979h-4.665c-1.491,0-3.154,1.059-3.154,2.578V983Zm-10-8h-2V954a1,1,0,0,1,1-1h1.08a1,1,0,0,1,.606.205s2.3,1.75,3.924,3a2.952,2.952,0,0,0,3.252.089c-1.184-1.241-3.358-3.5-4.532-4.554A8.712,8.712,0,0,0,494,949h-5a4.707,4.707,0,0,0-5,5v4a3.3,3.3,0,0,0,3,3v2a5.271,5.271,0,0,1-5-5v-4c0-4.835,3.516-7,7-7h5a10.782,10.782,0,0,1,7.67,3.258c1.719,1.551,5.315,5.37,5.468,5.532a1,1,0,0,1-.074,1.441c-1.206,1.044-4.152,2.5-6.674.561-1.142-.88-2.617-2.006-3.39-2.6V975Zm-9,0h-2V953h2v22Zm4,0h-2V961h2v14Zm-0.5-29a4.312,4.312,0,0,1-4.5-4.2v-1.6a4.511,4.511,0,0,1,9,0v1.6A4.312,4.312,0,0,1,491.5,946Zm0-8a2.349,2.349,0,0,0-2.5,2.2v1.6a2.52,2.52,0,0,0,5,0v-1.6A2.349,2.349,0,0,0,491.5,938Zm24,8a4.312,4.312,0,0,1-4.5-4.2v-1.6a4.511,4.511,0,0,1,9,0v1.6A4.311,4.311,0,0,1,515.5,946Zm0-8a2.349,2.349,0,0,0-2.5,2.2v1.6a2.52,2.52,0,0,0,5,0v-1.6A2.349,2.349,0,0,0,515.5,938Z" transform="translate(-479.313 -936)"/>
</svg>
