<svg xmlns="http://www.w3.org/2000/svg" width="47.75" height="44.656" viewBox="0 0 47.75 44.656">
  <defs>
    <style>
      .cls-1 {
        fill: #31afec;
        fill-rule: evenodd;
      }
    </style>
  </defs>
  <path class="cls-1" d="M512.5,858.5h-4a4,4,0,0,1-4-4v-27a7.2,7.2,0,0,1,3.44-5.828l0.254-.172h4.612l0.254,0.172a7.2,7.2,0,0,1,3.44,5.828v27A4,4,0,0,1,512.5,858.5Zm-3.683-35a5.121,5.121,0,0,0-2.317,4v27a2,2,0,0,0,2,2h4a2,2,0,0,0,2-2v-27a5.121,5.121,0,0,0-2.317-4h-3.366Zm-5.317,30h-4v-36a3,3,0,0,1,3-3h6a3,3,0,0,1,3,3v2h-2v-2a1,1,0,0,0-1-1h-6a1,1,0,0,0-1,1v34h2v2Zm0-24h-3v-2h3v2Zm9-9h-4v-2h4v2Zm-9,15h-3v-2h3v2Zm0,6h-3v-2h3v2Zm0,6h-3v-2h3v2Zm19,11h-5v-2h5a2,2,0,0,0,2-2v-27a5.121,5.121,0,0,0-2.317-4h-3.366a7.227,7.227,0,0,0-.831.708l-1.412-1.416a9.273,9.273,0,0,1,1.366-1.12l0.254-.172h4.612l0.254,0.172a7.2,7.2,0,0,1,3.44,5.828v27A4,4,0,0,1,522.5,858.5Zm-1-39h-2v-2a1,1,0,0,0-1-1h-6v-2h6a3,3,0,0,1,3,3v2Zm1,1h-4v-2h4v2Zm-19,38h-21V846.914l-2-2V840.5h18v2h-16v1.586l2,2V856.5h19v2Zm-18-18h-2v-8h15v2h-13v6Zm7,7h-9v-2h9v2Zm1,6h-2v-3h2v3Zm-4,0h-2v-3h2v3Zm4-15h-2v-2h2v2Zm-4,0h-2v-2h2v2Zm7-4h-7v-14h7v14Zm-5-2h3v-10h-3v10Zm-4,1h-2v-8h2v8Zm6-14h-2a3.356,3.356,0,0,0-1.214-2.545,4,4,0,0,0-3.55-.483c-3.733.9-6.419,0.462-7.985-1.31l1.5-1.324c1.035,1.172,3.06,1.406,6.015.69a5.874,5.874,0,0,1,5.258.855A5.352,5.352,0,0,1,493.5,819.5Z" transform="translate(-478.75 -813.844)"/>
</svg>
