<svg xmlns="http://www.w3.org/2000/svg" width="33" height="47.437" viewBox="0 0 33 47.437">
  <defs>
    <style>
      .cls-1 {
        fill: #31afec;
        fill-rule: evenodd;
      }
    </style>
  </defs>
  <path class="cls-1" d="M124.5,960.28l-3.207-3.207a1,1,0,0,1,1.414-1.414l1.793,1.792,1.586-1.585-1.793-1.793a1,1,0,0,1,1.414-1.414l3.207,3.207Zm-5,0-4.414-4.414,9.414-9.415,4.414,4.415Zm-1.586-4.414,1.586,1.585,6.586-6.585L124.5,949.28Zm14.586,8h-13v-2h13v2Zm-20-10a5,5,0,1,1,5-5A5.006,5.006,0,0,1,112.5,953.865Zm0-8a3,3,0,1,0,3,3A3,3,0,0,0,112.5,945.866Zm15,34h-24a1,1,0,0,1-1-1v-1c0-2.944,2.467-5,6-5h14c3.532,0,6,2.056,6,5v1A1,1,0,0,1,127.5,979.866Zm-23-2h22c0-2.215-2.154-3-4-3h-14C106.655,974.866,104.5,975.651,104.5,977.866Zm13.058-22.059a1,1,0,0,1-.707-0.292l-2.708-2.709a1,1,0,0,1,1.415-1.413l2.707,2.707A1,1,0,0,1,117.558,955.807Zm5.41-5.41a0.993,0.993,0,0,1-.707-0.293l-13.312-13.312a0.875,0.875,0,0,0-.66-0.262,1.025,1.025,0,0,0-.71.305L105,939.417a1.023,1.023,0,0,0-.306.71,0.9,0.9,0,0,0,.262.66l5.02,5.022a1,1,0,0,1-1.414,1.414l-5.02-5.021a2.89,2.89,0,0,1-.848-2.106,3.009,3.009,0,0,1,.892-2.093l2.582-2.582a3.012,3.012,0,0,1,2.092-.891,2.963,2.963,0,0,1,2.106.848l13.312,13.312A1,1,0,0,1,122.968,950.4ZM115.5,974.866a15.017,15.017,0,0,1-15-15,14.576,14.576,0,0,1,7.567-12.611,1,1,0,1,1,1,1.732,12.6,12.6,0,0,0-6.568,10.879,13.174,13.174,0,0,0,13,13,12.73,12.73,0,0,0,12.409-9.563,1,1,0,0,1,1.932.519A14.709,14.709,0,0,1,115.5,974.866Zm0-5a10.011,10.011,0,0,1-10-10,9.538,9.538,0,0,1,4.829-8.229,1,1,0,1,1,1.016,1.722,7.56,7.56,0,0,0-3.845,6.507,7.943,7.943,0,0,0,15.2,3.275,1,1,0,0,1,1.815.842A10.042,10.042,0,0,1,115.5,969.866Zm-11.6-29.6a1,1,0,0,1-.707-0.293l-3.105-3.1,4.414-4.415,3.024,3.025a1,1,0,1,1-1.414,1.413l-1.61-1.609-1.586,1.586,1.691,1.69A1,1,0,0,1,103.9,940.263Zm-0.4,39.6h-3a1,1,0,0,1,0-2h3A1,1,0,0,1,103.5,979.866Zm27,0h-3a1,1,0,0,1,0-2h3A1,1,0,0,1,130.5,979.866Z" transform="translate(-99.5 -932.438)"/>
</svg>
