<svg xmlns="http://www.w3.org/2000/svg" width="42.5" height="45.5" viewBox="0 0 42.5 45.5">
  <defs>
    <style>
      .cls-1 {
        fill: #31afec;
        fill-rule: evenodd;
      }
    </style>
  </defs>
  <path class="cls-1" d="M503,611.5H486a1,1,0,0,1-1-1v-1a1,1,0,0,1,.04-0.282l5-17A1,1,0,0,1,491,591.5h7a1,1,0,0,1,.959.718l5,17a1,1,0,0,1,.041.282v1A1,1,0,0,1,503,611.5Zm-15.958-2h14.915l-4.7-16h-5.5Zm9.958-17h-2v-1c0-3.757,1.869-6,5-6h4a5.692,5.692,0,0,0,3.295-1.359l0.443-.4,0.562,0.2a5.041,5.041,0,1,0,.375-9.612l-0.52-1.931a7.042,7.042,0,1,1,1.836,13.84,6.947,6.947,0,0,1-1.812-.242A7.545,7.545,0,0,1,504,587.5h-4c-2.48,0-3,2.175-3,4v1Zm-8.435-3.994a6.7,6.7,0,0,1-2.829-11.492,8.509,8.509,0,0,1,13.094-9.392l-1.163,1.627a6.51,6.51,0,0,0-9.825,7.729l0.294,0.732-0.643.456a4.7,4.7,0,0,0,1.561,8.4Zm21.411-12.493-1.941-.48a6.081,6.081,0,0,0-11.012-4.755l-1.68-1.086A8.081,8.081,0,0,1,509.973,576.013Zm-18.161,4.31a5.5,5.5,0,0,1,8.251-6.4l-1.114,1.661a3.5,3.5,0,0,0-5.25,4.072ZM525,611.5H505v-2h19v-8h-1a1,1,0,0,1-.832-0.445l-3.7-5.555H518v5a1,1,0,0,1-1,1h-2a1,1,0,0,1-.832-0.445l-3.7-5.555H510v5a1,1,0,0,1-1,1h-2a1,1,0,0,1-.832-0.445l-3.7-5.555H502v-2h1a1,1,0,0,1,.832.445l3.7,5.555H508v-5a1,1,0,0,1,1-1h2a1,1,0,0,1,.832.445l3.7,5.555H516v-5a1,1,0,0,1,1-1h2a1,1,0,0,1,.832.445l3.7,5.555H525a1,1,0,0,1,1,1v10A1,1,0,0,1,525,611.5Zm-3-4h-3v-2h3v2Zm-5,0h-3v-2h3v2Zm-5,0h-3v-2h3v2Z" transform="translate(-483.5 -566)"/>
</svg>
