<svg xmlns="http://www.w3.org/2000/svg" width="48" height="48" viewBox="0 0 48 48">
  <defs>
    <style>
      .cls-1 {
        fill: #31afec;
        fill-rule: evenodd;
      }
    </style>
  </defs>
  <path class="cls-1" d="M888,855.5a1,1,0,0,1-1-1v-27a5.006,5.006,0,0,1,5-5,2.835,2.835,0,0,1,2.924,1.617,1.006,1.006,0,0,1,.076.383v27a1,1,0,0,1-1.861.507A1.353,1.353,0,0,0,892,851.5a3,3,0,0,0-3,3A1,1,0,0,1,888,855.5Zm4-31a3,3,0,0,0-3,3v23a4.973,4.973,0,0,1,3-1,3.829,3.829,0,0,1,1,.136v-24.87A1.52,1.52,0,0,0,892,824.5Zm12,5H894v-2h10v2Zm24,0H918v-2h10v2Zm2,30H892a5.006,5.006,0,0,1-5-5h2a3,3,0,0,0,3,3h38a3,3,0,0,0,3-3h2A5.006,5.006,0,0,1,930,859.5Zm4-4a1,1,0,0,1-1-1,3,3,0,0,0-3-3,1.353,1.353,0,0,0-1.139.507A1,1,0,0,1,927,851.5v-27a1.026,1.026,0,0,1,.076-0.383A2.835,2.835,0,0,1,930,822.5a5.006,5.006,0,0,1,5,5v27A1,1,0,0,1,934,855.5Zm-4-6a4.973,4.973,0,0,1,3,1v-23a3,3,0,0,0-3-3,1.52,1.52,0,0,0-1,.266v24.87A3.834,3.834,0,0,1,930,849.5Zm-19-28a1,1,0,0,1-.707-0.293l-2-2A1,1,0,0,1,908,818.5v-4a1,1,0,0,1,.293-0.707l2-2a1,1,0,0,1,1.414,0l2,2a1,1,0,0,1,.293.707v4a1,1,0,0,1-.293.707l-2,2A1,1,0,0,1,911,821.5Zm-1-3.414,1,1,1-1v-3.172l-1-1-1,1v3.172Zm-10.074,33.792-1.852-.756,9-22,1.852,0.757Zm21.135-.036-8-22,1.879-.684,8,22ZM912,845.5h-2v-9h2v9Zm-1-14a6,6,0,1,1,6-6A6.007,6.007,0,0,1,911,831.5Zm0-10a4,4,0,1,0,4,4A4,4,0,0,0,911,821.5Zm0,20c-3.916,0-7.325-1.689-10.729-5.315l1.459-1.37c3,3.2,5.945,4.685,9.27,4.685s6.271-1.488,9.271-4.685l1.459,1.37C918.325,839.811,914.916,841.5,911,841.5Z" transform="translate(-887 -811.5)"/>
</svg>
